<svg viewBox="0 0 256 158" xmlns="http://www.w3.org/2000/svg" preserveAspectRatio="xMinYMin meet"><rect x="10" y="10" width="240" height="140" fill="#6EDC8C"></rect><path d="M238.371 157.892H18.395C8.431 157.892 0 149.462 0 139.497V18.395C0 8.431 8.431 0 18.395 0h219.21C247.569 0 256 8.431 256 18.395v121.102c0 9.964-7.665 18.395-17.629 18.395zM18.395 12.263c-3.066 0-6.132 3.066-6.132 6.132v121.102c0 3.832 3.066 6.132 6.132 6.132h219.21c3.832 0 6.132-3.066 6.132-6.132V18.395c0-3.832-3.066-6.132-6.132-6.132H18.395zM36.79 121.102V36.79h24.527l24.527 30.66 24.527-30.66h24.527v84.312h-24.527V72.814l-24.527 30.66-24.527-30.66v48.288H36.79z" fill="#000"></path><g transform="rotate(-180) translate(-15, 8) scale(0.65, 0.65)" transform-origin="center" fill="#000"><path d="M0 0 C0.04630033 10.2484893 0.08185748 20.4969538 0.10362434 30.74552631 C0.1140703 35.50413515 0.12824431 40.26267253 0.15087891 45.02124023 C0.17257834 49.61183056 0.18456251 54.20235208 0.18975449 58.79298973 C0.19345546 60.54611482 0.20068236 62.29923606 0.21146011 64.05233192 C0.22593655 66.50412824 0.22797957 68.95563866 0.22705078 71.4074707 C0.23424133 72.13539322 0.24143188 72.86331573 0.24884033 73.61329651 C0.233662 77.3058022 0.10659383 78.84010925 -2 82 C-2.721875 81.46375 -3.44375 80.9275 -4.1875 80.375 C-6.89901904 78.65798687 -6.89901904 78.65798687 -9.5625 79.75 C-10.366875 80.1625 -11.17125 80.575 -12 81 C-13.98 81.495 -13.98 81.495 -16 82 C-16 59.89 -16 37.78 -16 15 C-20.455 17.475 -20.455 17.475 -25 20 C-22.69 19.67 -20.38 19.34 -18 19 C-18 25.27 -18 31.54 -18 38 C-19.876875 38.721875 -21.75375 39.44375 -23.6875 40.1875 C-28.50040454 42.20835699 -31.65151833 43.9074113 -35 48 C-35.63550781 48.66 -36.27101562 49.32 -36.92578125 50 C-42.4102105 55.77519424 -47.18329768 61.77473638 -47.25 70.0625 C-47.12625 71.5165625 -47.12625 71.5165625 -47 73 C-46.401875 72.484375 -45.80375 71.96875 -45.1875 71.4375 C-44.465625 70.963125 -43.74375 70.48875 -43 70 C-41.515 70.495 -41.515 70.495 -40 71 C-40.33 71.66 -40.66 72.32 -41 73 C-41.78598831 78.37092011 -39.83946869 81.36811159 -37.1796875 85.80859375 C-35.73229954 88.49728463 -35.23324116 90.96786498 -35 94 C-31.88214887 94.35355339 -31.88214887 94.35355339 -30 92 C-29.443125 92.474375 -28.88625 92.94875 -28.3125 93.4375 C-25.81653926 95.12395996 -23.9553763 95.58953107 -21 96 C-21.60990891 99.55780196 -22.5783681 102.6828589 -24 106 C-25.32 106 -26.64 106 -28 106 C-28 105.34 -28 104.68 -28 104 C-29.98567708 103.8046875 -31.97135417 103.609375 -33.95703125 103.4140625 C-36 103 -36 103 -39 101 C-39.99 101 -40.98 101 -42 101 C-41.35341074 104.49158202 -40.03960471 107.0974856 -38 110 C-37.01 110.33 -36.02 110.66 -35 111 C-35.61277612 113.96175123 -36.25372522 115.38058783 -38 118 C-40.8125 118.5 -40.8125 118.5 -44 118 C-46.875 115.625 -46.875 115.625 -49 113 C-49 112.34 -49 111.68 -49 111 C-47.515 110.505 -47.515 110.505 -46 110 C-47.175625 109.525625 -48.35125 109.05125 -49.5625 108.5625 C-54.14429373 106.31193583 -56.34684812 103.20079736 -59.265625 99.1171875 C-61.77908906 96.04894984 -64.49305569 94.78785396 -68 93 C-70.44897847 89.32653229 -70.31537716 87.33643601 -70 83 C-69.01 82.01 -69.01 82.01 -68 81 C-68.32578384 78.99875639 -68.66055205 76.99897128 -69 75 C-68.7355646 72.65785793 -68.41755362 70.31974234 -68 68 C-67.01 68.33 -66.02 68.66 -65 69 C-65.03480469 68.27296875 -65.06960937 67.5459375 -65.10546875 66.796875 C-65.32420643 58.67233271 -64.69796303 50.39592605 -61 43 C-59 43 -59 43 -57.375 44.5 C-56.92125 44.995 -56.4675 45.49 -56 46 C-55.76539063 45.30519531 -55.53078125 44.61039063 -55.2890625 43.89453125 C-52.64561147 37.95878211 -48.09267901 33.00462605 -44 28 C-43.36964844 27.21496094 -42.73929688 26.42992188 -42.08984375 25.62109375 C-35.98542749 18.76536472 -26.28834246 13.60791729 -17.16015625 12.55859375 C-16.11730469 12.37425781 -15.07445312 12.18992187 -14 12 C-12.7115763 10.21550547 -12.7115763 10.21550547 -12 8 C-10.1953125 5.859375 -10.1953125 5.859375 -8.125 3.75 C-7.44695312 3.04359375 -6.76890625 2.3371875 -6.0703125 1.609375 C-4 0 -4 0 0 0 Z " transform="translate(72,0)"></path><path d="M0 0 C11.07012564 -0.83548118 19.94607134 4.09045494 29 10 C29.64582031 10.42023437 30.29164062 10.84046875 30.95703125 11.2734375 C32.31341129 12.1692201 33.65847751 13.08211619 35 14 C34.67 14.66 34.34 15.32 34 16 C33.443125 15.7834375 32.88625 15.566875 32.3125 15.34375 C26.94811407 13.38647405 22.70147617 12.68901039 17 13 C17.56847656 13.42410156 18.13695313 13.84820312 18.72265625 14.28515625 C21.18078445 16.15234879 23.59709304 18.06229583 26 20 C26.63035156 20.5053125 27.26070312 21.010625 27.91015625 21.53125 C35.67418404 28.4640493 40.61627356 39.26264929 41.203125 49.56640625 C41.3798819 64.63493202 38.6671752 79.49782087 28 91 C27.01 91 26.02 91 25 91 C25.33 88.69 25.66 86.38 26 84 C25.59910156 84.6290625 25.19820312 85.258125 24.78515625 85.90625 C19.63778141 93.65649239 13.50328791 100.8288288 5 105 C2.6875 104.6875 2.6875 104.6875 1 104 C1.46148437 103.52433594 1.92296875 103.04867187 2.3984375 102.55859375 C12.79000124 91.40717258 25.5841956 75.21850389 25.20703125 59.171875 C24.15050327 48.08829843 19.86233198 38.20597782 11.625 30.5625 C7.81226375 27.5661583 3.49978979 25.73461284 -1 24 C-1.02720824 21.31243045 -1.0469388 18.62514202 -1.0625 15.9375 C-1.07087891 15.18533203 -1.07925781 14.43316406 -1.08789062 13.65820312 C-1.10808341 8.99366882 -0.77595959 4.60076827 0 0 Z " transform="translate(75,15)"></path><path d="M0 0 C3.96930989 -0.02465881 7.93859034 -0.04284023 11.90795898 -0.05493164 C13.25920386 -0.05997057 14.61044326 -0.06680177 15.96166992 -0.07543945 C17.90020434 -0.08752419 19.838778 -0.09269828 21.77734375 -0.09765625 C23.52905884 -0.10551147 23.52905884 -0.10551147 25.31616211 -0.11352539 C28 0 28 0 29 1 C29.04080783 2.99958364 29.04254356 5.00045254 29 7 C26.36 7 23.72 7 21 7 C21.01047363 8.0194873 21.02094727 9.03897461 21.03173828 10.08935547 C21.06788727 13.86503602 21.09088177 17.64070121 21.10986328 21.41650391 C21.11993254 23.05194672 21.13358881 24.68737149 21.15087891 26.32275391 C21.17508705 28.6709437 21.18647357 31.01889588 21.1953125 33.3671875 C21.20563507 34.10057343 21.21595764 34.83395935 21.22659302 35.58956909 C21.22699368 37.39462697 21.12212755 39.1990783 21 41 C18.49936853 43.50063147 17.52188302 43.32420142 14.0625 43.375 C12.74958984 43.41753906 12.74958984 43.41753906 11.41015625 43.4609375 C9 43 9 43 7.35400391 41.43310547 C5.52025673 38.13791535 5.72495807 35.2611681 5.92578125 31.609375 C5.96544258 30.55245453 5.96544258 30.55245453 6.00590515 29.47418213 C6.09341797 27.23190132 6.20264716 24.99128641 6.3125 22.75 C6.37578527 21.22662149 6.43765045 19.70318328 6.49804688 18.1796875 C6.64891468 14.4522921 6.81926675 10.72608026 7 7 C4.69 7 2.38 7 0 7 C0 4.69 0 2.38 0 0 Z " transform="translate(50,85)"></path><path d="M0 0 C4.95158433 1.98063373 6.89988468 5.33371821 9.04296875 9.98046875 C11.04818062 16.30711683 11.42735345 23.30798733 9.0078125 29.56640625 C6.91570446 33.0944021 4.5732438 35.88252219 1 38 C1.165 36.7625 1.33 35.525 1.5 34.25 C2.52506299 24.60234832 2.14857745 16.20550756 -0.44140625 6.8125 C-0.98995298 4.05058639 -0.94716492 2.60940799 0 0 Z " transform="translate(116,47)"></path></g></svg>